<?xml version="1.0" encoding="utf-8"?>
<!-- Generator: Adobe Illustrator 16.0.0, SVG Export Plug-In . SVG Version: 6.00 Build 0)  -->
<!DOCTYPE svg PUBLIC "-//W3C//DTD SVG 1.1//EN" "http://www.w3.org/Graphics/SVG/1.1/DTD/svg11.dtd">
<svg version="1.1" id="Layer_4" xmlns="http://www.w3.org/2000/svg" xmlns:xlink="http://www.w3.org/1999/xlink" x="0px" y="0px"
	 width="2456px" height="720px" viewBox="0 0 2456 720" enable-background="new 0 0 2456 720" xml:space="preserve">
<g>
	<path fill="#DFF2F9" d="M489.483,350.609c0,97.021-78.895,175.672-176.217,175.672c-97.327,0-176.222-78.65-176.222-175.672
		c0-97.016,78.896-175.664,176.222-175.664C410.589,174.945,489.483,253.594,489.483,350.609z"/>
	<radialGradient id="SVGID_1_" cx="312.2949" cy="351.5542" r="162.0551" gradientUnits="userSpaceOnUse">
		<stop  offset="0.1382" style="stop-color:#C5E1B9"/>
		<stop  offset="1" style="stop-color:#26BDBD"/>
	</radialGradient>
	<ellipse fill="url(#SVGID_1_)" cx="312.295" cy="351.556" rx="163.33" ry="160.769"/>
	<linearGradient id="SVGID_2_" gradientUnits="userSpaceOnUse" x1="155.1333" y1="422.5732" x2="475.814" y2="422.5732">
		<stop  offset="0.0663" style="stop-color:#93D3D2"/>
		<stop  offset="0.5228" style="stop-color:#95D0B2"/>
		<stop  offset="0.878" style="stop-color:#95CE97"/>
	</linearGradient>
	<path opacity="0.77" fill="url(#SVGID_2_)" d="M474.705,332.939c-1.773,87.311-75.756,157.574-166.817,157.574
		c-68.244,0-126.885-39.473-152.755-95.993c19.137,67.86,82.314,117.687,157.348,117.687c90.208,0,163.333-71.98,163.333-160.77
		C475.814,345.177,475.413,339.012,474.705,332.939z"/>
	<linearGradient id="SVGID_3_" gradientUnits="userSpaceOnUse" x1="167.8237" y1="295.3262" x2="384.1382" y2="295.3262">
		<stop  offset="0.0663" style="stop-color:#F3D9E8"/>
		<stop  offset="0.9831" style="stop-color:#FEF5E1"/>
	</linearGradient>
	<path opacity="0.32" fill="url(#SVGID_3_)" d="M376.689,247.573c21.739,45.854-5.72,104.405-61.341,130.781
		c-55.621,26.369-118.333,10.577-140.075-35.28c-21.742-45.852,5.725-104.401,61.348-130.774
		C292.236,185.927,354.95,201.722,376.689,247.573z"/>
	<path fill="#F8FCFF" d="M283.188,214.061c5.839,10.453-3.911,27.021-21.781,36.998c-17.866,9.98-37.084,9.602-42.928-0.852
		c-5.841-10.457,3.916-27.022,21.779-37.005C258.133,203.223,277.348,203.605,283.188,214.061z"/>
	<ellipse fill="#F8FCFF" cx="205.104" cy="267.415" rx="11.048" ry="9.114"/>
</g>
<g>
	<path fill="#DFF2F9" d="M976.852,371.979c0,85.22-78.895,154.302-176.217,154.302c-97.327,0-176.222-69.082-176.222-154.302
		c0-85.212,78.895-154.292,176.222-154.292C897.958,217.688,976.852,286.768,976.852,371.979z"/>
	
		<radialGradient id="SVGID_4_" cx="799.6636" cy="876.8555" r="162.0592" gradientTransform="matrix(1 0 0 0.8783 0 -397.3318)" gradientUnits="userSpaceOnUse">
		<stop  offset="0.1382" style="stop-color:#C5E1B9"/>
		<stop  offset="1" style="stop-color:#26BDBD"/>
	</radialGradient>
	<ellipse fill="url(#SVGID_4_)" cx="799.664" cy="372.812" rx="163.33" ry="141.21"/>
	<linearGradient id="SVGID_5_" gradientUnits="userSpaceOnUse" x1="642.5015" y1="435.1895" x2="963.1831" y2="435.1895">
		<stop  offset="0.0663" style="stop-color:#93D3D2"/>
		<stop  offset="0.5228" style="stop-color:#95D0B2"/>
		<stop  offset="0.878" style="stop-color:#95CE97"/>
	</linearGradient>
	<path opacity="0.77" fill="url(#SVGID_5_)" d="M962.074,356.46c-1.773,76.689-75.757,138.405-166.817,138.405
		c-68.244,0-126.885-34.671-152.756-84.315c19.138,59.605,82.315,103.368,157.348,103.368c90.208,0,163.333-63.221,163.333-141.211
		C963.183,367.207,962.782,361.793,962.074,356.46z"/>
	<linearGradient id="SVGID_6_" gradientUnits="userSpaceOnUse" x1="655.1929" y1="323.4224" x2="871.5073" y2="323.4224">
		<stop  offset="0.0663" style="stop-color:#F3D9E8"/>
		<stop  offset="0.9831" style="stop-color:#FEF5E1"/>
	</linearGradient>
	<path opacity="0.32" fill="url(#SVGID_6_)" d="M864.058,281.478c21.74,40.278-5.721,91.706-61.341,114.872
		c-55.621,23.162-118.333,9.29-140.075-30.988c-21.742-40.273,5.725-91.699,61.348-114.864
		C779.605,227.332,842.319,241.205,864.058,281.478z"/>
	<path fill="#F8FCFF" d="M770.558,252.043c5.838,9.182-3.912,23.734-21.781,32.498c-17.867,8.767-37.084,8.433-42.928-0.749
		c-5.841-9.185,3.915-23.734,21.779-32.503C745.502,242.523,764.716,242.86,770.558,252.043z"/>
	<ellipse fill="#F8FCFF" cx="692.473" cy="298.907" rx="11.048" ry="8.006"/>
</g>
<g>
	<path fill="#DFF2F9" d="M1412.371,400.844c0,69.707-78.895,126.211-176.217,126.211c-97.327,0-176.222-56.504-176.222-126.211
		c0-69.699,78.895-126.203,176.222-126.203C1333.477,274.641,1412.371,331.145,1412.371,400.844z"/>
	
		<radialGradient id="SVGID_7_" cx="1235.1836" cy="1831.2246" r="162.0607" gradientTransform="matrix(1 0 0 0.7184 0 -914.027)" gradientUnits="userSpaceOnUse">
		<stop  offset="0.1382" style="stop-color:#C5E1B9"/>
		<stop  offset="1" style="stop-color:#26BDBD"/>
	</radialGradient>
	<ellipse fill="url(#SVGID_7_)" cx="1235.183" cy="401.524" rx="163.331" ry="115.505"/>
	<linearGradient id="SVGID_8_" gradientUnits="userSpaceOnUse" x1="1078.0205" y1="452.5469" x2="1398.7031" y2="452.5469">
		<stop  offset="0.0663" style="stop-color:#93D3D2"/>
		<stop  offset="0.5228" style="stop-color:#95D0B2"/>
		<stop  offset="0.878" style="stop-color:#95CE97"/>
	</linearGradient>
	<path opacity="0.77" fill="url(#SVGID_8_)" d="M1397.594,388.15c-1.775,62.729-75.758,113.209-166.818,113.209
		c-68.244,0-126.884-28.359-152.755-68.967c19.138,48.756,82.316,84.551,157.349,84.551c90.207,0,163.334-51.713,163.334-115.504
		C1398.703,396.941,1398.301,392.513,1397.594,388.15z"/>
	<linearGradient id="SVGID_9_" gradientUnits="userSpaceOnUse" x1="1090.7114" y1="361.126" x2="1307.0264" y2="361.126">
		<stop  offset="0.0663" style="stop-color:#F3D9E8"/>
		<stop  offset="0.9831" style="stop-color:#FEF5E1"/>
	</linearGradient>
	<path opacity="0.32" fill="url(#SVGID_9_)" d="M1299.578,326.818c21.738,32.945-5.721,75.01-61.342,93.959
		c-55.621,18.945-118.333,7.6-140.075-25.348c-21.742-32.94,5.725-75.005,61.348-93.953
		C1215.125,282.528,1277.838,293.876,1299.578,326.818z"/>
	<path fill="#F8FCFF" d="M1206.076,302.742c5.84,7.509-3.912,19.412-21.78,26.582c-17.866,7.169-37.085,6.896-42.928-0.613
		c-5.841-7.514,3.915-19.415,21.779-26.587C1181.021,294.956,1200.236,295.231,1206.076,302.742z"/>
	<ellipse fill="#F8FCFF" cx="1127.992" cy="341.074" rx="11.048" ry="6.548"/>
</g>
<g>
	<path fill="#DFF2F9" d="M1891.789,456.417c0,55.171-186.793,61.585-284.115,61.585c-97.326,0-104.283-46.888-104.283-102.058
		c0-55.165,139.875-103.243,237.203-103.243C1837.916,312.701,1891.789,401.252,1891.789,456.417z"/>
	
		<radialGradient id="SVGID_10_" cx="1696.6201" cy="3196.8906" r="173.6496" gradientTransform="matrix(1 0 0 0.5686 0 -1401.865)" gradientUnits="userSpaceOnUse">
		<stop  offset="0.1382" style="stop-color:#C5E1B9"/>
		<stop  offset="1" style="stop-color:#26BDBD"/>
	</radialGradient>
	<path fill="url(#SVGID_10_)" d="M1877.93,456.955c0,50.488-181.023,53.112-271.23,53.112c-90.203,0-91.389-43.097-91.389-93.585
		s134.105-94.775,224.311-94.775S1877.93,406.468,1877.93,456.955z"/>
	<linearGradient id="SVGID_11_" gradientUnits="userSpaceOnUse" x1="1521.4805" y1="475.457" x2="1878.1191" y2="475.457">
		<stop  offset="0.0663" style="stop-color:#93D3D2"/>
		<stop  offset="0.5228" style="stop-color:#95D0B2"/>
		<stop  offset="0.878" style="stop-color:#95CE97"/>
	</linearGradient>
	<path opacity="0.77" fill="url(#SVGID_11_)" d="M1877.01,446.371c-1.773,49.647-183.652,51.294-274.715,51.294
		c-68.244,0-54.943-24.612-80.814-56.751c19.137,38.588,10.375,69.085,85.408,69.085c90.207,0,271.23-2.621,271.23-53.11
		C1878.119,453.328,1877.719,449.822,1877.01,446.371z"/>
	<linearGradient id="SVGID_12_" gradientUnits="userSpaceOnUse" x1="1534.1709" y1="382.9121" x2="1795.5312" y2="382.9121">
		<stop  offset="0.0663" style="stop-color:#F3D9E8"/>
		<stop  offset="0.9831" style="stop-color:#FEF5E1"/>
	</linearGradient>
	<path opacity="0.32" fill="url(#SVGID_12_)" d="M1792.547,389.629c21.74,26.076-80.551,42.445-136.17,57.441
		c-55.621,14.994-93.014-9.334-114.756-35.412c-21.742-26.07,5.723-59.363,61.346-74.361
		C1846.061,271.748,1770.885,363.637,1792.547,389.629z"/>
	<path fill="#F8FCFF" d="M1649.535,338.299c5.84,5.942-3.91,15.364-21.781,21.038c-17.865,5.676-37.082,5.46-42.928-0.483
		c-5.84-5.946,3.916-15.367,21.779-21.043C1624.48,332.136,1643.695,332.354,1649.535,338.299z"/>
	<path fill="#F8FCFF" d="M1582.5,368.637c0,2.863-4.947,5.185-11.049,5.185c-6.1,0-11.047-2.321-11.047-5.185
		c0-2.86,4.947-5.182,11.047-5.182C1577.553,363.455,1582.5,365.776,1582.5,368.637z"/>
</g>
<g>
	<path fill="#DFF2F9" d="M2416.352,445.391c0,30.654-186.793,34.219-284.115,34.219c-97.326,0-104.283-26.053-104.283-56.707
		c0-30.652,139.875-57.365,237.201-57.365C2362.479,365.537,2416.352,414.738,2416.352,445.391z"/>
	
		<radialGradient id="SVGID_13_" cx="2221.1826" cy="8425.0811" r="173.6319" gradientTransform="matrix(1 0 0 0.316 0 -2239.4556)" gradientUnits="userSpaceOnUse">
		<stop  offset="0.1382" style="stop-color:#C5E1B9"/>
		<stop  offset="1" style="stop-color:#26BDBD"/>
	</radialGradient>
	<path fill="url(#SVGID_13_)" d="M2402.492,445.689c0,28.053-181.023,29.51-271.23,29.51c-90.205,0-91.389-23.945-91.389-51.998
		c0-28.054,134.104-52.66,224.309-52.66C2354.389,370.541,2402.492,417.636,2402.492,445.689z"/>
	<linearGradient id="SVGID_14_" gradientUnits="userSpaceOnUse" x1="2046.043" y1="455.9688" x2="2402.6816" y2="455.9688">
		<stop  offset="0.0663" style="stop-color:#93D3D2"/>
		<stop  offset="0.5228" style="stop-color:#95D0B2"/>
		<stop  offset="0.878" style="stop-color:#95CE97"/>
	</linearGradient>
	<path opacity="0.77" fill="url(#SVGID_14_)" d="M2401.572,439.807c-1.773,27.587-183.654,28.503-274.715,28.503
		c-68.244,0-54.945-13.675-80.814-31.533c19.137,21.44,10.375,38.386,85.406,38.386c90.209,0,271.232-1.457,271.232-29.51
		C2402.682,443.674,2402.279,441.727,2401.572,439.807z"/>
	<linearGradient id="SVGID_15_" gradientUnits="userSpaceOnUse" x1="2058.7324" y1="404.5479" x2="2320.0938" y2="404.5479">
		<stop  offset="0.0663" style="stop-color:#F3D9E8"/>
		<stop  offset="0.9831" style="stop-color:#FEF5E1"/>
	</linearGradient>
	<path opacity="0.32" fill="url(#SVGID_15_)" d="M2317.109,408.28c21.74,14.488-80.551,23.583-136.172,31.917
		c-55.619,8.33-93.012-5.188-114.756-19.677c-21.74-14.486,5.725-32.984,61.348-41.316
		C2370.623,342.781,2295.447,393.838,2317.109,408.28z"/>
	<path fill="#F8FCFF" d="M2174.098,379.76c5.838,3.303-3.912,8.536-21.781,11.689c-17.865,3.153-37.084,3.034-42.928-0.27
		c-5.84-3.304,3.916-8.537,21.779-11.691C2149.043,376.336,2168.256,376.456,2174.098,379.76z"/>
	<ellipse fill="#F8FCFF" cx="2096.013" cy="396.617" rx="11.048" ry="2.881"/>
</g>
</svg>
